<?xml version="1.0" standalone="no"?>
<!DOCTYPE svg PUBLIC "-//W3C//DTD SVG 20010904//EN"
 "http://www.w3.org/TR/2001/REC-SVG-20010904/DTD/svg10.dtd">
<svg version="1.0" xmlns="http://www.w3.org/2000/svg"
 width="5000.000000pt" height="5000.000000pt" viewBox="0 0 5000.000000 5000.000000"
 preserveAspectRatio="xMidYMid meet">

<g transform="translate(0.000000,5000.000000) scale(0.100000,-0.100000)"
fill="#000000" stroke="none">
<path d="M0 25000 l0 -25000 25000 0 25000 0 0 25000 0 25000 -25000 0 -25000
0 0 -25000z m23730 8660 l0 -1410 -1505 0 -1505 0 0 -3335 0 -3335 -1545 0
-1545 0 0 3335 0 3335 -2637 0 c-1699 0 -2670 -4 -2728 -10 -342 -38 -504
-132 -505 -292 0 -134 132 -324 372 -535 61 -54 157 -138 212 -187 166 -145
437 -408 591 -572 854 -909 1308 -1770 1395 -2643 24 -248 7 -596 -41 -818
-135 -628 -536 -1099 -1164 -1370 -211 -92 -495 -176 -784 -233 -103 -20 -115
-20 -4242 -20 l-4139 0 0 1415 0 1415 2818 0 c1860 0 2854 4 2927 10 143 14
312 52 390 89 227 106 231 285 13 546 -83 100 -193 203 -398 375 -342 287
-844 825 -1152 1235 -466 619 -732 1178 -834 1755 -32 179 -44 513 -24 692 74
687 377 1278 816 1589 297 211 689 344 1099 372 28 2 3215 4 7083 5 l7032 2 0
-1410z m7292 1320 c29 -83 1400 -4181 2295 -6855 698 -2088 708 -2117 716
-2109 4 4 7 2043 7 4531 l0 4523 3114 0 c3090 0 3116 0 3278 -21 799 -101
1449 -365 1943 -790 299 -256 525 -550 711 -925 95 -190 95 -192 125 -349 76
-408 104 -679 103 -1020 0 -469 -65 -760 -248 -1111 -374 -717 -1046 -1180
-2141 -1475 -234 -64 -240 -66 -237 -75 2 -5 161 -210 353 -456 l350 -448
2325 0 2324 0 0 -1415 0 -1415 -2774 0 -2774 0 -1508 1572 -1509 1572 -3
-1573 -2 -1573 -3443 7 c-1893 4 -3443 10 -3445 14 -2 3 -137 386 -300 851
l-297 845 -1412 3 c-1337 2 -1413 1 -1421 -15 -6 -10 -142 -395 -303 -855
l-294 -838 -1697 0 c-1057 0 -1698 4 -1698 9 0 6 69 220 154 478 85 257 439
1332 786 2388 1068 3247 1387 4216 1782 5415 210 635 383 1165 386 1178 l4 22
2361 -2 2360 -3 29 -85z m14998 -11949 l0 -1409 -452 -6 c-249 -3 -1141 -8
-1983 -11 -1274 -5 -1549 -8 -1645 -21 -210 -27 -335 -72 -406 -146 -90 -94
-84 -197 21 -359 54 -84 218 -255 360 -377 273 -235 666 -617 876 -852 662
-743 1061 -1459 1203 -2162 60 -297 77 -693 42 -948 -99 -711 -453 -1202
-1091 -1515 -220 -108 -401 -170 -730 -253 l-150 -37 -4256 -3 -4257 -2 -1502
1565 c-827 860 -1507 1562 -1512 1559 -4 -3 -8 -707 -8 -1565 l0 -1559 -3441
2 -3442 3 -297 850 -298 850 -1415 3 -1415 2 -46 -132 c-26 -73 -160 -457
-299 -853 l-253 -720 -1701 -3 -1702 -2 28 82 c15 46 718 2183 1562 4750
l1534 4668 2356 0 2357 0 651 -1947 c358 -1072 1042 -3114 1519 -4540 477
-1426 870 -2586 874 -2580 4 7 8 2049 8 4540 l0 4527 3078 0 c3011 0 3081 -1
3247 -20 957 -112 1685 -441 2223 -1005 281 -295 558 -759 611 -1027 119 -597
147 -1139 80 -1538 -107 -639 -522 -1229 -1131 -1609 -230 -144 -601 -311
-913 -411 -71 -22 -222 -66 -335 -97 -113 -30 -208 -58 -212 -62 -4 -4 151
-209 345 -456 l352 -450 2440 -3 c2120 -2 2456 -1 2565 13 227 27 363 72 444
146 65 59 80 98 74 183 -13 154 -177 359 -508 637 -267 224 -611 570 -898 904
-660 767 -1032 1475 -1142 2171 -27 168 -36 450 -21 614 32 327 134 696 264
955 280 558 756 900 1407 1009 235 39 212 39 2825 45 1403 4 2902 7 3333 9
l782 2 0 -1409z m-38916 1227 c30 -95 323 -1019 651 -2053 328 -1033 597
-1881 600 -1883 6 -7 21 48 591 2116 l548 1992 1417 0 1417 0 41 -122 c82
-249 1281 -3978 1281 -3985 2 -42 77 296 456 2065 l438 2042 1544 0 c1465 0
1543 -1 1538 -17 -7 -23 -2376 -9475 -2376 -9479 0 -2 -696 -3 -1546 -2
l-1547 3 -600 2008 c-331 1104 -604 2004 -608 2000 -4 -5 -95 -363 -202 -798
-108 -434 -331 -1336 -497 -2003 l-302 -1212 -1545 2 -1546 3 -1439 4720
c-791 2596 -1441 4732 -1444 4748 l-6 27 1540 0 1541 0 55 -172z"/>
<path d="M28632 32943 c-5 -15 -308 -851 -672 -1858 -365 -1006 -665 -1842
-668 -1857 l-4 -28 1306 0 c718 0 1306 3 1306 8 0 10 -1248 3754 -1253 3759
-3 2 -9 -9 -15 -24z"/>
<path d="M37470 31835 l0 -875 1248 0 c1353 0 1273 -3 1407 53 228 94 316 212
372 502 24 124 24 395 0 524 -36 189 -100 346 -178 434 -78 89 -278 206 -388
227 -34 6 -485 10 -1257 10 l-1204 0 0 -875z"/>
<path d="M21702 22293 c-15 -27 -1340 -3695 -1344 -3718 -3 -20 3 -20 1292
-23 712 -1 1300 0 1307 2 8 3 -194 622 -612 1877 -343 1029 -626 1874 -629
1876 -2 3 -9 -4 -14 -14z"/>
<path d="M30540 21185 l0 -875 1243 0 c1069 0 1251 2 1302 15 93 23 263 112
317 166 114 114 181 348 182 639 0 281 -77 557 -193 691 -50 57 -191 152 -296
199 l-80 35 -1237 3 -1238 2 0 -875z"/>
</g>
</svg>
